# xmcd
#
# Track frame offsets: 
#        183
#        20488
#        36300
#        60955
#        74688
#        93208
#        112270
#        132140
#        155420
#        176330
#
# Disc length: 2615 seconds
#
# Revision: 1
# Processed by: cddbd v1.5.2PL0 Copyright (c) Steve Scherf et al.
# Submitted via: ExactAudioCopy v0.95b4
#
DISCID=820a350a
DTITLE=Earle, Steve - Copperhead Road
DYEAR=1988
DGENRE=Country
TTITLE0=Copperhead Road
TTITLE1=Snake Oil
TTITLE2=Back To The Wall
TTITLE3=The Devil's Right Hand
TTITLE4=Johnny Come Lately
TTITLE5=Even When I'm Blue
TTITLE6=You Belong To Me
TTITLE7=Waiting On You
TTITLE8=Once You Love
TTITLE9=Nothing But A Child
EXTD=
EXTT0=
EXTT1=
EXTT2=
EXTT3=
EXTT4=
EXTT5=
EXTT6=
EXTT7=
EXTT8=
EXTT9=
PLAYORDER=
